<?xml version="1.0" encoding="utf-8" standalone="no"?>
<!DOCTYPE svg PUBLIC "-//W3C//DTD SVG 1.1//EN"
  "http://www.w3.org/Graphics/SVG/1.1/DTD/svg11.dtd">
<svg xmlns:xlink="http://www.w3.org/1999/xlink" width="424.8pt" height="108pt" viewBox="0 0 424.8 108" xmlns="http://www.w3.org/2000/svg" version="1.1">
 <metadata>
  <rdf:RDF xmlns:dc="http://purl.org/dc/elements/1.1/" xmlns:cc="http://creativecommons.org/ns#" xmlns:rdf="http://www.w3.org/1999/02/22-rdf-syntax-ns#">
   <cc:Work>
    <dc:type rdf:resource="http://purl.org/dc/dcmitype/StillImage"/>
    <dc:date>2026-10-06T00:41:00.563818</dc:date>
    <dc:format>image/svg+xml</dc:format>
    <dc:creator>
     <cc:Agent>
      <dc:title>Matplotlib v3.10.8, https://matplotlib.org/</dc:title>
     </cc:Agent>
    </dc:creator>
   </cc:Work>
  </rdf:RDF>
 </metadata>
 <defs>
  <style type="text/css">*{stroke-linejoin: round; stroke-linecap: butt}</style>
 </defs>
 <g id="figure_1">
  <g id="patch_1">
   <path d="M 0 108 
L 424.8 108 
L 424.8 0 
L 0 0 
z
" style="fill: #ffffff"/>
  </g>
  <g id="axes_1">
   <g id="patch_2">
    <path d="M 34.79 81.22 
L 176.247866 81.22 
L 176.247866 13.86 
L 34.79 13.86 
z
" style="fill: #ffffff"/>
   </g>
   <g id="line2d_1">
    <path d="M 37.95399 63.076234 
L 58.769293 55.282574 
L 79.584595 48.135979 
L 100.399898 43.888889 
L 121.2152 37.16413 
L 142.030503 25.411324 
" clip-path="url(#pe37f10aeae)" style="fill: none; stroke: #c8c8c8; stroke-width: 0.8; stroke-linecap: square"/>
    <defs>
     <path id="mf12e7fbb7e" d="M 0 0.8 
C 0.212162 0.8 0.415664 0.715707 0.565685 0.565685 
C 0.715707 0.415664 0.8 0.212162 0.8 0 
C 0.8 -0.212162 0.715707 -0.415664 0.565685 -0.565685 
C 0.415664 -0.715707 0.212162 -0.8 0 -0.8 
C -0.212162 -0.8 -0.415664 -0.715707 -0.565685 -0.565685 
C -0.715707 -0.415664 -0.8 -0.212162 -0.8 0 
C -0.8 0.212162 -0.715707 0.415664 -0.565685 0.565685 
C -0.415664 0.715707 -0.212162 0.8 0 0.8 
z
" style="stroke: #c8c8c8"/>
    </defs>
    <g clip-path="url(#pe37f10aeae)">
     <use xlink:href="#mf12e7fbb7e" x="37.95399" y="63.076234" style="fill: #c8c8c8; stroke: #c8c8c8"/>
     <use xlink:href="#mf12e7fbb7e" x="58.769293" y="55.282574" style="fill: #c8c8c8; stroke: #c8c8c8"/>
     <use xlink:href="#mf12e7fbb7e" x="79.584595" y="48.135979" style="fill: #c8c8c8; stroke: #c8c8c8"/>
     <use xlink:href="#mf12e7fbb7e" x="100.399898" y="43.888889" style="fill: #c8c8c8; stroke: #c8c8c8"/>
     <use xlink:href="#mf12e7fbb7e" x="121.2152" y="37.16413" style="fill: #c8c8c8; stroke: #c8c8c8"/>
     <use xlink:href="#mf12e7fbb7e" x="142.030503" y="25.411324" style="fill: #c8c8c8; stroke: #c8c8c8"/>
    </g>
   </g>
   <g id="line2d_2">
    <path d="M 37.95399 55.145542 
L 58.769293 51.870691 
L 79.584595 42.61379 
L 100.399898 43.616682 
L 121.2152 37.25037 
L 142.030503 28.285761 
" clip-path="url(#pe37f10aeae)" style="fill: none; stroke: #c8c8c8; stroke-width: 0.8; stroke-linecap: square"/>
    <g clip-path="url(#pe37f10aeae)">
     <use xlink:href="#mf12e7fbb7e" x="37.95399" y="55.145542" style="fill: #c8c8c8; stroke: #c8c8c8"/>
     <use xlink:href="#mf12e7fbb7e" x="58.769293" y="51.870691" style="fill: #c8c8c8; stroke: #c8c8c8"/>
     <use xlink:href="#mf12e7fbb7e" x="79.584595" y="42.61379" style="fill: #c8c8c8; stroke: #c8c8c8"/>
     <use xlink:href="#mf12e7fbb7e" x="100.399898" y="43.616682" style="fill: #c8c8c8; stroke: #c8c8c8"/>
     <use xlink:href="#mf12e7fbb7e" x="121.2152" y="37.25037" style="fill: #c8c8c8; stroke: #c8c8c8"/>
     <use xlink:href="#mf12e7fbb7e" x="142.030503" y="28.285761" style="fill: #c8c8c8; stroke: #c8c8c8"/>
    </g>
   </g>
   <g id="line2d_3">
    <path d="M 37.95399 64.701596 
L 58.769293 56.034163 
L 79.584595 49.223879 
L 100.399898 45.688421 
L 121.2152 39.679908 
L 142.030503 29.683019 
" clip-path="url(#pe37f10aeae)" style="fill: none; stroke: #c8c8c8; stroke-width: 0.8; stroke-linecap: square"/>
    <g clip-path="url(#pe37f10aeae)">
     <use xlink:href="#mf12e7fbb7e" x="37.95399" y="64.701596" style="fill: #c8c8c8; stroke: #c8c8c8"/>
     <use xlink:href="#mf12e7fbb7e" x="58.769293" y="56.034163" style="fill: #c8c8c8; stroke: #c8c8c8"/>
     <use xlink:href="#mf12e7fbb7e" x="79.584595" y="49.223879" style="fill: #c8c8c8; stroke: #c8c8c8"/>
     <use xlink:href="#mf12e7fbb7e" x="100.399898" y="45.688421" style="fill: #c8c8c8; stroke: #c8c8c8"/>
     <use xlink:href="#mf12e7fbb7e" x="121.2152" y="39.679908" style="fill: #c8c8c8; stroke: #c8c8c8"/>
     <use xlink:href="#mf12e7fbb7e" x="142.030503" y="29.683019" style="fill: #c8c8c8; stroke: #c8c8c8"/>
    </g>
   </g>
   <g id="line2d_4">
    <path d="M 37.95399 52.269234 
L 58.769293 52.117342 
L 79.584595 50.402336 
L 100.399898 50.231871 
L 121.2152 43.485458 
L 142.030503 35.522011 
" clip-path="url(#pe37f10aeae)" style="fill: none; stroke: #c8c8c8; stroke-width: 0.8; stroke-linecap: square"/>
    <g clip-path="url(#pe37f10aeae)">
     <use xlink:href="#mf12e7fbb7e" x="37.95399" y="52.269234" style="fill: #c8c8c8; stroke: #c8c8c8"/>
     <use xlink:href="#mf12e7fbb7e" x="58.769293" y="52.117342" style="fill: #c8c8c8; stroke: #c8c8c8"/>
     <use xlink:href="#mf12e7fbb7e" x="79.584595" y="50.402336" style="fill: #c8c8c8; stroke: #c8c8c8"/>
     <use xlink:href="#mf12e7fbb7e" x="100.399898" y="50.231871" style="fill: #c8c8c8; stroke: #c8c8c8"/>
     <use xlink:href="#mf12e7fbb7e" x="121.2152" y="43.485458" style="fill: #c8c8c8; stroke: #c8c8c8"/>
     <use xlink:href="#mf12e7fbb7e" x="142.030503" y="35.522011" style="fill: #c8c8c8; stroke: #c8c8c8"/>
    </g>
   </g>
   <g id="line2d_5">
    <path d="M 37.95399 60.923653 
L 58.769293 58.19927 
L 79.584595 48.702223 
L 100.399898 48.219128 
L 121.2152 45.020564 
L 142.030503 42.976574 
" clip-path="url(#pe37f10aeae)" style="fill: none; stroke: #c8c8c8; stroke-width: 0.8; stroke-linecap: square"/>
    <g clip-path="url(#pe37f10aeae)">
     <use xlink:href="#mf12e7fbb7e" x="37.95399" y="60.923653" style="fill: #c8c8c8; stroke: #c8c8c8"/>
     <use xlink:href="#mf12e7fbb7e" x="58.769293" y="58.19927" style="fill: #c8c8c8; stroke: #c8c8c8"/>
     <use xlink:href="#mf12e7fbb7e" x="79.584595" y="48.702223" style="fill: #c8c8c8; stroke: #c8c8c8"/>
     <use xlink:href="#mf12e7fbb7e" x="100.399898" y="48.219128" style="fill: #c8c8c8; stroke: #c8c8c8"/>
     <use xlink:href="#mf12e7fbb7e" x="121.2152" y="45.020564" style="fill: #c8c8c8; stroke: #c8c8c8"/>
     <use xlink:href="#mf12e7fbb7e" x="142.030503" y="42.976574" style="fill: #c8c8c8; stroke: #c8c8c8"/>
    </g>
   </g>
   <g id="matplotlib.axis_1">
    <g id="xtick_1">
     <g id="line2d_6">
      <defs>
       <path id="me4365940cb" d="M 0 0 
L 0 3.5 
" style="stroke: #000000; stroke-width: 0.8"/>
      </defs>
      <g>
       <use xlink:href="#me4365940cb" x="37.95399" y="81.22" style="stroke: #000000; stroke-width: 0.8"/>
      </g>
     </g>
     <g id="text_1">
      <!-- 2 -->
      <g transform="translate(35.886178 93.158984) scale(0.065 -0.065)">
       <defs>
        <path id="DejaVuSans-32" d="M 1228 531 
L 3431 531 
L 3431 0 
L 469 0 
L 469 531 
Q 828 903 1448 1529 
Q 2069 2156 2228 2338 
Q 2531 2678 2651 2914 
Q 2772 3150 2772 3378 
Q 2772 3750 2511 3984 
Q 2250 4219 1831 4219 
Q 1534 4219 1204 4116 
Q 875 4013 500 3803 
L 500 4441 
Q 881 4594 1212 4672 
Q 1544 4750 1819 4750 
Q 2544 4750 2975 4387 
Q 3406 4025 3406 3419 
Q 3406 3131 3298 2873 
Q 3191 2616 2906 2266 
Q 2828 2175 2409 1742 
Q 1991 1309 1228 531 
z
" transform="scale(0.015625)"/>
       </defs>
       <use xlink:href="#DejaVuSans-32"/>
      </g>
     </g>
    </g>
    <g id="xtick_2">
     <g id="line2d_7">
      <g>
       <use xlink:href="#me4365940cb" x="58.769293" y="81.22" style="stroke: #000000; stroke-width: 0.8"/>
      </g>
     </g>
     <g id="text_2">
      <!-- 4 -->
      <g transform="translate(56.70148 93.158984) scale(0.065 -0.065)">
       <defs>
        <path id="DejaVuSans-34" d="M 2419 4116 
L 825 1625 
L 2419 1625 
L 2419 4116 
z
M 2253 4666 
L 3047 4666 
L 3047 1625 
L 3713 1625 
L 3713 1100 
L 3047 1100 
L 3047 0 
L 2419 0 
L 2419 1100 
L 313 1100 
L 313 1709 
L 2253 4666 
z
" transform="scale(0.015625)"/>
       </defs>
       <use xlink:href="#DejaVuSans-34"/>
      </g>
     </g>
    </g>
    <g id="xtick_3">
     <g id="line2d_8">
      <g>
       <use xlink:href="#me4365940cb" x="79.584595" y="81.22" style="stroke: #000000; stroke-width: 0.8"/>
      </g>
     </g>
     <g id="text_3">
      <!-- 8 -->
      <g transform="translate(77.516783 93.158984) scale(0.065 -0.065)">
       <defs>
        <path id="DejaVuSans-38" d="M 2034 2216 
Q 1584 2216 1326 1975 
Q 1069 1734 1069 1313 
Q 1069 891 1326 650 
Q 1584 409 2034 409 
Q 2484 409 2743 651 
Q 3003 894 3003 1313 
Q 3003 1734 2745 1975 
Q 2488 2216 2034 2216 
z
M 1403 2484 
Q 997 2584 770 2862 
Q 544 3141 544 3541 
Q 544 4100 942 4425 
Q 1341 4750 2034 4750 
Q 2731 4750 3128 4425 
Q 3525 4100 3525 3541 
Q 3525 3141 3298 2862 
Q 3072 2584 2669 2484 
Q 3125 2378 3379 2068 
Q 3634 1759 3634 1313 
Q 3634 634 3220 271 
Q 2806 -91 2034 -91 
Q 1263 -91 848 271 
Q 434 634 434 1313 
Q 434 1759 690 2068 
Q 947 2378 1403 2484 
z
M 1172 3481 
Q 1172 3119 1398 2916 
Q 1625 2713 2034 2713 
Q 2441 2713 2670 2916 
Q 2900 3119 2900 3481 
Q 2900 3844 2670 4047 
Q 2441 4250 2034 4250 
Q 1625 4250 1398 4047 
Q 1172 3844 1172 3481 
z
" transform="scale(0.015625)"/>
       </defs>
       <use xlink:href="#DejaVuSans-38"/>
      </g>
     </g>
    </g>
    <g id="xtick_4">
     <g id="line2d_9">
      <g>
       <use xlink:href="#me4365940cb" x="100.399898" y="81.22" style="stroke: #000000; stroke-width: 0.8"/>
      </g>
     </g>
     <g id="text_4">
      <!-- 16 -->
      <g transform="translate(96.264273 93.158984) scale(0.065 -0.065)">
       <defs>
        <path id="DejaVuSans-31" d="M 794 531 
L 1825 531 
L 1825 4091 
L 703 3866 
L 703 4441 
L 1819 4666 
L 2450 4666 
L 2450 531 
L 3481 531 
L 3481 0 
L 794 0 
L 794 531 
z
" transform="scale(0.015625)"/>
        <path id="DejaVuSans-36" d="M 2113 2584 
Q 1688 2584 1439 2293 
Q 1191 2003 1191 1497 
Q 1191 994 1439 701 
Q 1688 409 2113 409 
Q 2538 409 2786 701 
Q 3034 994 3034 1497 
Q 3034 2003 2786 2293 
Q 2538 2584 2113 2584 
z
M 3366 4563 
L 3366 3988 
Q 3128 4100 2886 4159 
Q 2644 4219 2406 4219 
Q 1781 4219 1451 3797 
Q 1122 3375 1075 2522 
Q 1259 2794 1537 2939 
Q 1816 3084 2150 3084 
Q 2853 3084 3261 2657 
Q 3669 2231 3669 1497 
Q 3669 778 3244 343 
Q 2819 -91 2113 -91 
Q 1303 -91 875 529 
Q 447 1150 447 2328 
Q 447 3434 972 4092 
Q 1497 4750 2381 4750 
Q 2619 4750 2861 4703 
Q 3103 4656 3366 4563 
z
" transform="scale(0.015625)"/>
       </defs>
       <use xlink:href="#DejaVuSans-31"/>
       <use xlink:href="#DejaVuSans-36" transform="translate(63.623047 0)"/>
      </g>
     </g>
    </g>
    <g id="xtick_5">
     <g id="line2d_10">
      <g>
       <use xlink:href="#me4365940cb" x="121.2152" y="81.22" style="stroke: #000000; stroke-width: 0.8"/>
      </g>
     </g>
     <g id="text_5">
      <!-- 32 -->
      <g transform="translate(117.079575 93.158984) scale(0.065 -0.065)">
       <defs>
        <path id="DejaVuSans-33" d="M 2597 2516 
Q 3050 2419 3304 2112 
Q 3559 1806 3559 1356 
Q 3559 666 3084 287 
Q 2609 -91 1734 -91 
Q 1441 -91 1130 -33 
Q 819 25 488 141 
L 488 750 
Q 750 597 1062 519 
Q 1375 441 1716 441 
Q 2309 441 2620 675 
Q 2931 909 2931 1356 
Q 2931 1769 2642 2001 
Q 2353 2234 1838 2234 
L 1294 2234 
L 1294 2753 
L 1863 2753 
Q 2328 2753 2575 2939 
Q 2822 3125 2822 3475 
Q 2822 3834 2567 4026 
Q 2313 4219 1838 4219 
Q 1578 4219 1281 4162 
Q 984 4106 628 3988 
L 628 4550 
Q 988 4650 1302 4700 
Q 1616 4750 1894 4750 
Q 2613 4750 3031 4423 
Q 3450 4097 3450 3541 
Q 3450 3153 3228 2886 
Q 3006 2619 2597 2516 
z
" transform="scale(0.015625)"/>
       </defs>
       <use xlink:href="#DejaVuSans-33"/>
       <use xlink:href="#DejaVuSans-32" transform="translate(63.623047 0)"/>
      </g>
     </g>
    </g>
    <g id="xtick_6">
     <g id="line2d_11">
      <g>
       <use xlink:href="#me4365940cb" x="142.030503" y="81.22" style="stroke: #000000; stroke-width: 0.8"/>
      </g>
     </g>
     <g id="text_6">
      <!-- 64 -->
      <g transform="translate(137.894878 93.158984) scale(0.065 -0.065)">
       <use xlink:href="#DejaVuSans-36"/>
       <use xlink:href="#DejaVuSans-34" transform="translate(63.623047 0)"/>
      </g>
     </g>
    </g>
    <g id="text_7">
     <!-- electrodes -->
     <g transform="translate(87.242371 103.829688) scale(0.07 -0.07)">
      <defs>
       <path id="DejaVuSans-65" d="M 3597 1894 
L 3597 1613 
L 953 1613 
Q 991 1019 1311 708 
Q 1631 397 2203 397 
Q 2534 397 2845 478 
Q 3156 559 3463 722 
L 3463 178 
Q 3153 47 2828 -22 
Q 2503 -91 2169 -91 
Q 1331 -91 842 396 
Q 353 884 353 1716 
Q 353 2575 817 3079 
Q 1281 3584 2069 3584 
Q 2775 3584 3186 3129 
Q 3597 2675 3597 1894 
z
M 3022 2063 
Q 3016 2534 2758 2815 
Q 2500 3097 2075 3097 
Q 1594 3097 1305 2825 
Q 1016 2553 972 2059 
L 3022 2063 
z
" transform="scale(0.015625)"/>
       <path id="DejaVuSans-6c" d="M 603 4863 
L 1178 4863 
L 1178 0 
L 603 0 
L 603 4863 
z
" transform="scale(0.015625)"/>
       <path id="DejaVuSans-63" d="M 3122 3366 
L 3122 2828 
Q 2878 2963 2633 3030 
Q 2388 3097 2138 3097 
Q 1578 3097 1268 2742 
Q 959 2388 959 1747 
Q 959 1106 1268 751 
Q 1578 397 2138 397 
Q 2388 397 2633 464 
Q 2878 531 3122 666 
L 3122 134 
Q 2881 22 2623 -34 
Q 2366 -91 2075 -91 
Q 1284 -91 818 406 
Q 353 903 353 1747 
Q 353 2603 823 3093 
Q 1294 3584 2113 3584 
Q 2378 3584 2631 3529 
Q 2884 3475 3122 3366 
z
" transform="scale(0.015625)"/>
       <path id="DejaVuSans-74" d="M 1172 4494 
L 1172 3500 
L 2356 3500 
L 2356 3053 
L 1172 3053 
L 1172 1153 
Q 1172 725 1289 603 
Q 1406 481 1766 481 
L 2356 481 
L 2356 0 
L 1766 0 
Q 1100 0 847 248 
Q 594 497 594 1153 
L 594 3053 
L 172 3053 
L 172 3500 
L 594 3500 
L 594 4494 
L 1172 4494 
z
" transform="scale(0.015625)"/>
       <path id="DejaVuSans-72" d="M 2631 2963 
Q 2534 3019 2420 3045 
Q 2306 3072 2169 3072 
Q 1681 3072 1420 2755 
Q 1159 2438 1159 1844 
L 1159 0 
L 581 0 
L 581 3500 
L 1159 3500 
L 1159 2956 
Q 1341 3275 1631 3429 
Q 1922 3584 2338 3584 
Q 2397 3584 2469 3576 
Q 2541 3569 2628 3553 
L 2631 2963 
z
" transform="scale(0.015625)"/>
       <path id="DejaVuSans-6f" d="M 1959 3097 
Q 1497 3097 1228 2736 
Q 959 2375 959 1747 
Q 959 1119 1226 758 
Q 1494 397 1959 397 
Q 2419 397 2687 759 
Q 2956 1122 2956 1747 
Q 2956 2369 2687 2733 
Q 2419 3097 1959 3097 
z
M 1959 3584 
Q 2709 3584 3137 3096 
Q 3566 2609 3566 1747 
Q 3566 888 3137 398 
Q 2709 -91 1959 -91 
Q 1206 -91 779 398 
Q 353 888 353 1747 
Q 353 2609 779 3096 
Q 1206 3584 1959 3584 
z
" transform="scale(0.015625)"/>
       <path id="DejaVuSans-64" d="M 2906 2969 
L 2906 4863 
L 3481 4863 
L 3481 0 
L 2906 0 
L 2906 525 
Q 2725 213 2448 61 
Q 2172 -91 1784 -91 
Q 1150 -91 751 415 
Q 353 922 353 1747 
Q 353 2572 751 3078 
Q 1150 3584 1784 3584 
Q 2172 3584 2448 3432 
Q 2725 3281 2906 2969 
z
M 947 1747 
Q 947 1113 1208 752 
Q 1469 391 1925 391 
Q 2381 391 2643 752 
Q 2906 1113 2906 1747 
Q 2906 2381 2643 2742 
Q 2381 3103 1925 3103 
Q 1469 3103 1208 2742 
Q 947 2381 947 1747 
z
" transform="scale(0.015625)"/>
       <path id="DejaVuSans-73" d="M 2834 3397 
L 2834 2853 
Q 2591 2978 2328 3040 
Q 2066 3103 1784 3103 
Q 1356 3103 1142 2972 
Q 928 2841 928 2578 
Q 928 2378 1081 2264 
Q 1234 2150 1697 2047 
L 1894 2003 
Q 2506 1872 2764 1633 
Q 3022 1394 3022 966 
Q 3022 478 2636 193 
Q 2250 -91 1575 -91 
Q 1294 -91 989 -36 
Q 684 19 347 128 
L 347 722 
Q 666 556 975 473 
Q 1284 391 1588 391 
Q 1994 391 2212 530 
Q 2431 669 2431 922 
Q 2431 1156 2273 1281 
Q 2116 1406 1581 1522 
L 1381 1569 
Q 847 1681 609 1914 
Q 372 2147 372 2553 
Q 372 3047 722 3315 
Q 1072 3584 1716 3584 
Q 2034 3584 2315 3537 
Q 2597 3491 2834 3397 
z
" transform="scale(0.015625)"/>
      </defs>
      <use xlink:href="#DejaVuSans-65"/>
      <use xlink:href="#DejaVuSans-6c" transform="translate(61.523438 0)"/>
      <use xlink:href="#DejaVuSans-65" transform="translate(89.306641 0)"/>
      <use xlink:href="#DejaVuSans-63" transform="translate(150.830078 0)"/>
      <use xlink:href="#DejaVuSans-74" transform="translate(205.810547 0)"/>
      <use xlink:href="#DejaVuSans-72" transform="translate(245.019531 0)"/>
      <use xlink:href="#DejaVuSans-6f" transform="translate(283.882812 0)"/>
      <use xlink:href="#DejaVuSans-64" transform="translate(345.064453 0)"/>
      <use xlink:href="#DejaVuSans-65" transform="translate(408.541016 0)"/>
      <use xlink:href="#DejaVuSans-73" transform="translate(470.064453 0)"/>
     </g>
    </g>
   </g>
   <g id="matplotlib.axis_2">
    <g id="ytick_1">
     <g id="line2d_12">
      <defs>
       <path id="mbb33f3bc35" d="M 0 0 
L -3.5 0 
" style="stroke: #000000; stroke-width: 0.8"/>
      </defs>
      <g>
       <use xlink:href="#mbb33f3bc35" x="34.79" y="78.158182" style="stroke: #000000; stroke-width: 0.8"/>
      </g>
     </g>
     <g id="text_8">
      <!-- 0.5 -->
      <g transform="translate(17.452969 80.627674) scale(0.065 -0.065)">
       <defs>
        <path id="DejaVuSans-30" d="M 2034 4250 
Q 1547 4250 1301 3770 
Q 1056 3291 1056 2328 
Q 1056 1369 1301 889 
Q 1547 409 2034 409 
Q 2525 409 2770 889 
Q 3016 1369 3016 2328 
Q 3016 3291 2770 3770 
Q 2525 4250 2034 4250 
z
M 2034 4750 
Q 2819 4750 3233 4129 
Q 3647 3509 3647 2328 
Q 3647 1150 3233 529 
Q 2819 -91 2034 -91 
Q 1250 -91 836 529 
Q 422 1150 422 2328 
Q 422 3509 836 4129 
Q 1250 4750 2034 4750 
z
" transform="scale(0.015625)"/>
        <path id="DejaVuSans-2e" d="M 684 794 
L 1344 794 
L 1344 0 
L 684 0 
L 684 794 
z
" transform="scale(0.015625)"/>
        <path id="DejaVuSans-35" d="M 691 4666 
L 3169 4666 
L 3169 4134 
L 1269 4134 
L 1269 2991 
Q 1406 3038 1543 3061 
Q 1681 3084 1819 3084 
Q 2600 3084 3056 2656 
Q 3513 2228 3513 1497 
Q 3513 744 3044 326 
Q 2575 -91 1722 -91 
Q 1428 -91 1123 -41 
Q 819 9 494 109 
L 494 744 
Q 775 591 1075 516 
Q 1375 441 1709 441 
Q 2250 441 2565 725 
Q 2881 1009 2881 1497 
Q 2881 1984 2565 2268 
Q 2250 2553 1709 2553 
Q 1456 2553 1204 2497 
Q 953 2441 691 2322 
L 691 4666 
z
" transform="scale(0.015625)"/>
       </defs>
       <use xlink:href="#DejaVuSans-30"/>
       <use xlink:href="#DejaVuSans-2e" transform="translate(63.623047 0)"/>
       <use xlink:href="#DejaVuSans-35" transform="translate(95.410156 0)"/>
      </g>
     </g>
    </g>
    <g id="ytick_2">
     <g id="line2d_13">
      <g>
       <use xlink:href="#mbb33f3bc35" x="34.79" y="55.331808" style="stroke: #000000; stroke-width: 0.8"/>
      </g>
     </g>
     <g id="text_9">
      <!-- 0.6 -->
      <g transform="translate(17.452969 57.8013) scale(0.065 -0.065)">
       <use xlink:href="#DejaVuSans-30"/>
       <use xlink:href="#DejaVuSans-2e" transform="translate(63.623047 0)"/>
       <use xlink:href="#DejaVuSans-36" transform="translate(95.410156 0)"/>
      </g>
     </g>
    </g>
    <g id="ytick_3">
     <g id="line2d_14">
      <g>
       <use xlink:href="#mbb33f3bc35" x="34.79" y="32.505434" style="stroke: #000000; stroke-width: 0.8"/>
      </g>
     </g>
     <g id="text_10">
      <!-- 0.7 -->
      <g transform="translate(17.452969 34.974926) scale(0.065 -0.065)">
       <defs>
        <path id="DejaVuSans-37" d="M 525 4666 
L 3525 4666 
L 3525 4397 
L 1831 0 
L 1172 0 
L 2766 4134 
L 525 4134 
L 525 4666 
z
" transform="scale(0.015625)"/>
       </defs>
       <use xlink:href="#DejaVuSans-30"/>
       <use xlink:href="#DejaVuSans-2e" transform="translate(63.623047 0)"/>
       <use xlink:href="#DejaVuSans-37" transform="translate(95.410156 0)"/>
      </g>
     </g>
    </g>
    <g id="text_11">
     <!-- detection -->
     <g transform="translate(11.997187 64.069844) rotate(-90) scale(0.07 -0.07)">
      <defs>
       <path id="DejaVuSans-69" d="M 603 3500 
L 1178 3500 
L 1178 0 
L 603 0 
L 603 3500 
z
M 603 4863 
L 1178 4863 
L 1178 4134 
L 603 4134 
L 603 4863 
z
" transform="scale(0.015625)"/>
       <path id="DejaVuSans-6e" d="M 3513 2113 
L 3513 0 
L 2938 0 
L 2938 2094 
Q 2938 2591 2744 2837 
Q 2550 3084 2163 3084 
Q 1697 3084 1428 2787 
Q 1159 2491 1159 1978 
L 1159 0 
L 581 0 
L 581 3500 
L 1159 3500 
L 1159 2956 
Q 1366 3272 1645 3428 
Q 1925 3584 2291 3584 
Q 2894 3584 3203 3211 
Q 3513 2838 3513 2113 
z
" transform="scale(0.015625)"/>
      </defs>
      <use xlink:href="#DejaVuSans-64"/>
      <use xlink:href="#DejaVuSans-65" transform="translate(63.476562 0)"/>
      <use xlink:href="#DejaVuSans-74" transform="translate(125 0)"/>
      <use xlink:href="#DejaVuSans-65" transform="translate(164.208984 0)"/>
      <use xlink:href="#DejaVuSans-63" transform="translate(225.732422 0)"/>
      <use xlink:href="#DejaVuSans-74" transform="translate(280.712891 0)"/>
      <use xlink:href="#DejaVuSans-69" transform="translate(319.921875 0)"/>
      <use xlink:href="#DejaVuSans-6f" transform="translate(347.705078 0)"/>
      <use xlink:href="#DejaVuSans-6e" transform="translate(408.886719 0)"/>
     </g>
    </g>
   </g>
   <g id="line2d_15">
    <path d="M 34.79 78.158182 
L 176.247866 78.158182 
" clip-path="url(#pe37f10aeae)" style="fill: none; stroke-dasharray: 0.7,1.155; stroke-dashoffset: 0; stroke: #888888; stroke-width: 0.7"/>
   </g>
   <g id="patch_3">
    <path d="M 34.79 81.22 
L 34.79 13.86 
" style="fill: none; stroke: #000000; stroke-width: 0.6; stroke-linejoin: miter; stroke-linecap: square"/>
   </g>
   <g id="patch_4">
    <path d="M 34.79 81.22 
L 176.247866 81.22 
" style="fill: none; stroke: #000000; stroke-width: 0.6; stroke-linejoin: miter; stroke-linecap: square"/>
   </g>
   <g id="line2d_16">
    <path d="M 37.95399 57.402609 
L 58.769293 48.744484 
L 79.584595 36.955976 
L 100.399898 32.286179 
L 121.2152 27.573018 
L 142.030503 16.921818 
" clip-path="url(#pe37f10aeae)" style="fill: none; stroke: #1f4e79; stroke-width: 1.5; stroke-linecap: square"/>
    <defs>
     <path id="mc815500b27" d="M 0 1.3 
C 0.344764 1.3 0.675454 1.163024 0.919239 0.919239 
C 1.163024 0.675454 1.3 0.344764 1.3 0 
C 1.3 -0.344764 1.163024 -0.675454 0.919239 -0.919239 
C 0.675454 -1.163024 0.344764 -1.3 0 -1.3 
C -0.344764 -1.3 -0.675454 -1.163024 -0.919239 -0.919239 
C -1.163024 -0.675454 -1.3 -0.344764 -1.3 0 
C -1.3 0.344764 -1.163024 0.675454 -0.919239 0.919239 
C -0.675454 1.163024 -0.344764 1.3 0 1.3 
z
" style="stroke: #1f4e79"/>
    </defs>
    <g clip-path="url(#pe37f10aeae)">
     <use xlink:href="#mc815500b27" x="37.95399" y="57.402609" style="fill: #1f4e79; stroke: #1f4e79"/>
     <use xlink:href="#mc815500b27" x="58.769293" y="48.744484" style="fill: #1f4e79; stroke: #1f4e79"/>
     <use xlink:href="#mc815500b27" x="79.584595" y="36.955976" style="fill: #1f4e79; stroke: #1f4e79"/>
     <use xlink:href="#mc815500b27" x="100.399898" y="32.286179" style="fill: #1f4e79; stroke: #1f4e79"/>
     <use xlink:href="#mc815500b27" x="121.2152" y="27.573018" style="fill: #1f4e79; stroke: #1f4e79"/>
     <use xlink:href="#mc815500b27" x="142.030503" y="16.921818" style="fill: #1f4e79; stroke: #1f4e79"/>
    </g>
   </g>
   <g id="line2d_17">
    <path d="M 37.95399 61.827147 
L 58.769293 54.714 
L 79.584595 51.026665 
L 100.399898 49.00415 
L 121.2152 40.842062 
L 142.030503 31.774757 
" clip-path="url(#pe37f10aeae)" style="fill: none; stroke: #5b2c8d; stroke-width: 1.5; stroke-linecap: square"/>
    <defs>
     <path id="m3367631335" d="M 0 1.3 
C 0.344764 1.3 0.675454 1.163024 0.919239 0.919239 
C 1.163024 0.675454 1.3 0.344764 1.3 0 
C 1.3 -0.344764 1.163024 -0.675454 0.919239 -0.919239 
C 0.675454 -1.163024 0.344764 -1.3 0 -1.3 
C -0.344764 -1.3 -0.675454 -1.163024 -0.919239 -0.919239 
C -1.163024 -0.675454 -1.3 -0.344764 -1.3 0 
C -1.3 0.344764 -1.163024 0.675454 -0.919239 0.919239 
C -0.675454 1.163024 -0.344764 1.3 0 1.3 
z
" style="stroke: #5b2c8d"/>
    </defs>
    <g clip-path="url(#pe37f10aeae)">
     <use xlink:href="#m3367631335" x="37.95399" y="61.827147" style="fill: #5b2c8d; stroke: #5b2c8d"/>
     <use xlink:href="#m3367631335" x="58.769293" y="54.714" style="fill: #5b2c8d; stroke: #5b2c8d"/>
     <use xlink:href="#m3367631335" x="79.584595" y="51.026665" style="fill: #5b2c8d; stroke: #5b2c8d"/>
     <use xlink:href="#m3367631335" x="100.399898" y="49.00415" style="fill: #5b2c8d; stroke: #5b2c8d"/>
     <use xlink:href="#m3367631335" x="121.2152" y="40.842062" style="fill: #5b2c8d; stroke: #5b2c8d"/>
     <use xlink:href="#m3367631335" x="142.030503" y="31.774757" style="fill: #5b2c8d; stroke: #5b2c8d"/>
    </g>
   </g>
   <g id="line2d_18">
    <path d="M 37.95399 70.757501 
L 58.769293 71.392019 
L 79.584595 71.260097 
L 100.399898 72.984391 
L 121.2152 72.907101 
L 142.030503 68.729398 
" clip-path="url(#pe37f10aeae)" style="fill: none; stroke: #d55e00; stroke-width: 1.5; stroke-linecap: square"/>
    <defs>
     <path id="ma231625788" d="M 0 1.3 
C 0.344764 1.3 0.675454 1.163024 0.919239 0.919239 
C 1.163024 0.675454 1.3 0.344764 1.3 0 
C 1.3 -0.344764 1.163024 -0.675454 0.919239 -0.919239 
C 0.675454 -1.163024 0.344764 -1.3 0 -1.3 
C -0.344764 -1.3 -0.675454 -1.163024 -0.919239 -0.919239 
C -1.163024 -0.675454 -1.3 -0.344764 -1.3 0 
C -1.3 0.344764 -1.163024 0.675454 -0.919239 0.919239 
C -0.675454 1.163024 -0.344764 1.3 0 1.3 
z
" style="stroke: #d55e00"/>
    </defs>
    <g clip-path="url(#pe37f10aeae)">
     <use xlink:href="#ma231625788" x="37.95399" y="70.757501" style="fill: #d55e00; stroke: #d55e00"/>
     <use xlink:href="#ma231625788" x="58.769293" y="71.392019" style="fill: #d55e00; stroke: #d55e00"/>
     <use xlink:href="#ma231625788" x="79.584595" y="71.260097" style="fill: #d55e00; stroke: #d55e00"/>
     <use xlink:href="#ma231625788" x="100.399898" y="72.984391" style="fill: #d55e00; stroke: #d55e00"/>
     <use xlink:href="#ma231625788" x="121.2152" y="72.907101" style="fill: #d55e00; stroke: #d55e00"/>
     <use xlink:href="#ma231625788" x="142.030503" y="68.729398" style="fill: #d55e00; stroke: #d55e00"/>
    </g>
   </g>
   <g id="text_12">
    <!-- STIA-Net -->
    <g style="fill: #d55e00" transform="translate(145.030503 71.440211) scale(0.062 -0.062)">
     <defs>
      <path id="DejaVuSans-53" d="M 3425 4513 
L 3425 3897 
Q 3066 4069 2747 4153 
Q 2428 4238 2131 4238 
Q 1616 4238 1336 4038 
Q 1056 3838 1056 3469 
Q 1056 3159 1242 3001 
Q 1428 2844 1947 2747 
L 2328 2669 
Q 3034 2534 3370 2195 
Q 3706 1856 3706 1288 
Q 3706 609 3251 259 
Q 2797 -91 1919 -91 
Q 1588 -91 1214 -16 
Q 841 59 441 206 
L 441 856 
Q 825 641 1194 531 
Q 1563 422 1919 422 
Q 2459 422 2753 634 
Q 3047 847 3047 1241 
Q 3047 1584 2836 1778 
Q 2625 1972 2144 2069 
L 1759 2144 
Q 1053 2284 737 2584 
Q 422 2884 422 3419 
Q 422 4038 858 4394 
Q 1294 4750 2059 4750 
Q 2388 4750 2728 4690 
Q 3069 4631 3425 4513 
z
" transform="scale(0.015625)"/>
      <path id="DejaVuSans-54" d="M -19 4666 
L 3928 4666 
L 3928 4134 
L 2272 4134 
L 2272 0 
L 1638 0 
L 1638 4134 
L -19 4134 
L -19 4666 
z
" transform="scale(0.015625)"/>
      <path id="DejaVuSans-49" d="M 628 4666 
L 1259 4666 
L 1259 0 
L 628 0 
L 628 4666 
z
" transform="scale(0.015625)"/>
      <path id="DejaVuSans-41" d="M 2188 4044 
L 1331 1722 
L 3047 1722 
L 2188 4044 
z
M 1831 4666 
L 2547 4666 
L 4325 0 
L 3669 0 
L 3244 1197 
L 1141 1197 
L 716 0 
L 50 0 
L 1831 4666 
z
" transform="scale(0.015625)"/>
      <path id="DejaVuSans-2d" d="M 313 2009 
L 1997 2009 
L 1997 1497 
L 313 1497 
L 313 2009 
z
" transform="scale(0.015625)"/>
      <path id="DejaVuSans-4e" d="M 628 4666 
L 1478 4666 
L 3547 763 
L 3547 4666 
L 4159 4666 
L 4159 0 
L 3309 0 
L 1241 3903 
L 1241 0 
L 628 0 
L 628 4666 
z
" transform="scale(0.015625)"/>
     </defs>
     <use xlink:href="#DejaVuSans-53"/>
     <use xlink:href="#DejaVuSans-54" transform="translate(63.476562 0)"/>
     <use xlink:href="#DejaVuSans-49" transform="translate(124.560547 0)"/>
     <use xlink:href="#DejaVuSans-41" transform="translate(154.052734 0)"/>
     <use xlink:href="#DejaVuSans-2d" transform="translate(220.210938 0)"/>
     <use xlink:href="#DejaVuSans-4e" transform="translate(256.294922 0)"/>
     <use xlink:href="#DejaVuSans-65" transform="translate(331.099609 0)"/>
     <use xlink:href="#DejaVuSans-74" transform="translate(392.623047 0)"/>
    </g>
   </g>
   <g id="text_13">
    <!-- Adaptive Deep CNN -->
    <g style="fill: #5b2c8d" transform="translate(145.030503 34.485569) scale(0.062 -0.062)">
     <defs>
      <path id="DejaVuSans-61" d="M 2194 1759 
Q 1497 1759 1228 1600 
Q 959 1441 959 1056 
Q 959 750 1161 570 
Q 1363 391 1709 391 
Q 2188 391 2477 730 
Q 2766 1069 2766 1631 
L 2766 1759 
L 2194 1759 
z
M 3341 1997 
L 3341 0 
L 2766 0 
L 2766 531 
Q 2569 213 2275 61 
Q 1981 -91 1556 -91 
Q 1019 -91 701 211 
Q 384 513 384 1019 
Q 384 1609 779 1909 
Q 1175 2209 1959 2209 
L 2766 2209 
L 2766 2266 
Q 2766 2663 2505 2880 
Q 2244 3097 1772 3097 
Q 1472 3097 1187 3025 
Q 903 2953 641 2809 
L 641 3341 
Q 956 3463 1253 3523 
Q 1550 3584 1831 3584 
Q 2591 3584 2966 3190 
Q 3341 2797 3341 1997 
z
" transform="scale(0.015625)"/>
      <path id="DejaVuSans-70" d="M 1159 525 
L 1159 -1331 
L 581 -1331 
L 581 3500 
L 1159 3500 
L 1159 2969 
Q 1341 3281 1617 3432 
Q 1894 3584 2278 3584 
Q 2916 3584 3314 3078 
Q 3713 2572 3713 1747 
Q 3713 922 3314 415 
Q 2916 -91 2278 -91 
Q 1894 -91 1617 61 
Q 1341 213 1159 525 
z
M 3116 1747 
Q 3116 2381 2855 2742 
Q 2594 3103 2138 3103 
Q 1681 3103 1420 2742 
Q 1159 2381 1159 1747 
Q 1159 1113 1420 752 
Q 1681 391 2138 391 
Q 2594 391 2855 752 
Q 3116 1113 3116 1747 
z
" transform="scale(0.015625)"/>
      <path id="DejaVuSans-76" d="M 191 3500 
L 800 3500 
L 1894 563 
L 2988 3500 
L 3597 3500 
L 2284 0 
L 1503 0 
L 191 3500 
z
" transform="scale(0.015625)"/>
      <path id="DejaVuSans-20" transform="scale(0.015625)"/>
      <path id="DejaVuSans-44" d="M 1259 4147 
L 1259 519 
L 2022 519 
Q 2988 519 3436 956 
Q 3884 1394 3884 2338 
Q 3884 3275 3436 3711 
Q 2988 4147 2022 4147 
L 1259 4147 
z
M 628 4666 
L 1925 4666 
Q 3281 4666 3915 4102 
Q 4550 3538 4550 2338 
Q 4550 1131 3912 565 
Q 3275 0 1925 0 
L 628 0 
L 628 4666 
z
" transform="scale(0.015625)"/>
      <path id="DejaVuSans-43" d="M 4122 4306 
L 4122 3641 
Q 3803 3938 3442 4084 
Q 3081 4231 2675 4231 
Q 1875 4231 1450 3742 
Q 1025 3253 1025 2328 
Q 1025 1406 1450 917 
Q 1875 428 2675 428 
Q 3081 428 3442 575 
Q 3803 722 4122 1019 
L 4122 359 
Q 3791 134 3420 21 
Q 3050 -91 2638 -91 
Q 1578 -91 968 557 
Q 359 1206 359 2328 
Q 359 3453 968 4101 
Q 1578 4750 2638 4750 
Q 3056 4750 3426 4639 
Q 3797 4528 4122 4306 
z
" transform="scale(0.015625)"/>
     </defs>
     <use xlink:href="#DejaVuSans-41"/>
     <use xlink:href="#DejaVuSans-64" transform="translate(66.658203 0)"/>
     <use xlink:href="#DejaVuSans-61" transform="translate(130.134766 0)"/>
     <use xlink:href="#DejaVuSans-70" transform="translate(191.414062 0)"/>
     <use xlink:href="#DejaVuSans-74" transform="translate(254.890625 0)"/>
     <use xlink:href="#DejaVuSans-69" transform="translate(294.099609 0)"/>
     <use xlink:href="#DejaVuSans-76" transform="translate(321.882812 0)"/>
     <use xlink:href="#DejaVuSans-65" transform="translate(381.0625 0)"/>
     <use xlink:href="#DejaVuSans-20" transform="translate(442.585938 0)"/>
     <use xlink:href="#DejaVuSans-44" transform="translate(474.373047 0)"/>
     <use xlink:href="#DejaVuSans-65" transform="translate(551.375 0)"/>
     <use xlink:href="#DejaVuSans-65" transform="translate(612.898438 0)"/>
     <use xlink:href="#DejaVuSans-70" transform="translate(674.421875 0)"/>
     <use xlink:href="#DejaVuSans-20" transform="translate(737.898438 0)"/>
     <use xlink:href="#DejaVuSans-43" transform="translate(769.685547 0)"/>
     <use xlink:href="#DejaVuSans-4e" transform="translate(839.509766 0)"/>
     <use xlink:href="#DejaVuSans-4e" transform="translate(914.314453 0)"/>
    </g>
   </g>
   <g id="text_14">
    <!-- Riemannian -->
    <g style="fill: #1f4e79" transform="translate(145.030503 19.632631) scale(0.062 -0.062)">
     <defs>
      <path id="DejaVuSans-52" d="M 2841 2188 
Q 3044 2119 3236 1894 
Q 3428 1669 3622 1275 
L 4263 0 
L 3584 0 
L 2988 1197 
Q 2756 1666 2539 1819 
Q 2322 1972 1947 1972 
L 1259 1972 
L 1259 0 
L 628 0 
L 628 4666 
L 2053 4666 
Q 2853 4666 3247 4331 
Q 3641 3997 3641 3322 
Q 3641 2881 3436 2590 
Q 3231 2300 2841 2188 
z
M 1259 4147 
L 1259 2491 
L 2053 2491 
Q 2509 2491 2742 2702 
Q 2975 2913 2975 3322 
Q 2975 3731 2742 3939 
Q 2509 4147 2053 4147 
L 1259 4147 
z
" transform="scale(0.015625)"/>
      <path id="DejaVuSans-6d" d="M 3328 2828 
Q 3544 3216 3844 3400 
Q 4144 3584 4550 3584 
Q 5097 3584 5394 3201 
Q 5691 2819 5691 2113 
L 5691 0 
L 5113 0 
L 5113 2094 
Q 5113 2597 4934 2840 
Q 4756 3084 4391 3084 
Q 3944 3084 3684 2787 
Q 3425 2491 3425 1978 
L 3425 0 
L 2847 0 
L 2847 2094 
Q 2847 2600 2669 2842 
Q 2491 3084 2119 3084 
Q 1678 3084 1418 2786 
Q 1159 2488 1159 1978 
L 1159 0 
L 581 0 
L 581 3500 
L 1159 3500 
L 1159 2956 
Q 1356 3278 1631 3431 
Q 1906 3584 2284 3584 
Q 2666 3584 2933 3390 
Q 3200 3197 3328 2828 
z
" transform="scale(0.015625)"/>
     </defs>
     <use xlink:href="#DejaVuSans-52"/>
     <use xlink:href="#DejaVuSans-69" transform="translate(69.482422 0)"/>
     <use xlink:href="#DejaVuSans-65" transform="translate(97.265625 0)"/>
     <use xlink:href="#DejaVuSans-6d" transform="translate(158.789062 0)"/>
     <use xlink:href="#DejaVuSans-61" transform="translate(256.201172 0)"/>
     <use xlink:href="#DejaVuSans-6e" transform="translate(317.480469 0)"/>
     <use xlink:href="#DejaVuSans-6e" transform="translate(380.859375 0)"/>
     <use xlink:href="#DejaVuSans-69" transform="translate(444.238281 0)"/>
     <use xlink:href="#DejaVuSans-61" transform="translate(472.021484 0)"/>
     <use xlink:href="#DejaVuSans-6e" transform="translate(533.300781 0)"/>
    </g>
   </g>
   <g id="text_15">
    <!-- (a) detection rises to 64 -->
    <g transform="translate(34.79 7.86) scale(0.069 -0.069)">
     <defs>
      <path id="DejaVuSans-28" d="M 1984 4856 
Q 1566 4138 1362 3434 
Q 1159 2731 1159 2009 
Q 1159 1288 1364 580 
Q 1569 -128 1984 -844 
L 1484 -844 
Q 1016 -109 783 600 
Q 550 1309 550 2009 
Q 550 2706 781 3412 
Q 1013 4119 1484 4856 
L 1984 4856 
z
" transform="scale(0.015625)"/>
      <path id="DejaVuSans-29" d="M 513 4856 
L 1013 4856 
Q 1481 4119 1714 3412 
Q 1947 2706 1947 2009 
Q 1947 1309 1714 600 
Q 1481 -109 1013 -844 
L 513 -844 
Q 928 -128 1133 580 
Q 1338 1288 1338 2009 
Q 1338 2731 1133 3434 
Q 928 4138 513 4856 
z
" transform="scale(0.015625)"/>
     </defs>
     <use xlink:href="#DejaVuSans-28"/>
     <use xlink:href="#DejaVuSans-61" transform="translate(39.013672 0)"/>
     <use xlink:href="#DejaVuSans-29" transform="translate(100.292969 0)"/>
     <use xlink:href="#DejaVuSans-20" transform="translate(139.306641 0)"/>
     <use xlink:href="#DejaVuSans-64" transform="translate(171.09375 0)"/>
     <use xlink:href="#DejaVuSans-65" transform="translate(234.570312 0)"/>
     <use xlink:href="#DejaVuSans-74" transform="translate(296.09375 0)"/>
     <use xlink:href="#DejaVuSans-65" transform="translate(335.302734 0)"/>
     <use xlink:href="#DejaVuSans-63" transform="translate(396.826172 0)"/>
     <use xlink:href="#DejaVuSans-74" transform="translate(451.806641 0)"/>
     <use xlink:href="#DejaVuSans-69" transform="translate(491.015625 0)"/>
     <use xlink:href="#DejaVuSans-6f" transform="translate(518.798828 0)"/>
     <use xlink:href="#DejaVuSans-6e" transform="translate(579.980469 0)"/>
     <use xlink:href="#DejaVuSans-20" transform="translate(643.359375 0)"/>
     <use xlink:href="#DejaVuSans-72" transform="translate(675.146484 0)"/>
     <use xlink:href="#DejaVuSans-69" transform="translate(716.259766 0)"/>
     <use xlink:href="#DejaVuSans-73" transform="translate(744.042969 0)"/>
     <use xlink:href="#DejaVuSans-65" transform="translate(796.142578 0)"/>
     <use xlink:href="#DejaVuSans-73" transform="translate(857.666016 0)"/>
     <use xlink:href="#DejaVuSans-20" transform="translate(909.765625 0)"/>
     <use xlink:href="#DejaVuSans-74" transform="translate(941.552734 0)"/>
     <use xlink:href="#DejaVuSans-6f" transform="translate(980.761719 0)"/>
     <use xlink:href="#DejaVuSans-20" transform="translate(1041.943359 0)"/>
     <use xlink:href="#DejaVuSans-36" transform="translate(1073.730469 0)"/>
     <use xlink:href="#DejaVuSans-34" transform="translate(1137.353516 0)"/>
    </g>
   </g>
   <g id="legend_1">
    <g id="line2d_19">
     <path d="M 38.15 19.515125 
L 43.19 19.515125 
L 48.23 19.515125 
" style="fill: none; stroke: #c8c8c8; stroke-width: 0.8; stroke-linecap: square"/>
     <g>
      <use xlink:href="#mf12e7fbb7e" x="43.19" y="19.515125" style="fill: #c8c8c8; stroke: #c8c8c8"/>
     </g>
    </g>
    <g id="text_16">
     <!-- the other five decoders -->
     <g transform="translate(52.71 21.475125) scale(0.056 -0.056)">
      <defs>
       <path id="DejaVuSans-68" d="M 3513 2113 
L 3513 0 
L 2938 0 
L 2938 2094 
Q 2938 2591 2744 2837 
Q 2550 3084 2163 3084 
Q 1697 3084 1428 2787 
Q 1159 2491 1159 1978 
L 1159 0 
L 581 0 
L 581 4863 
L 1159 4863 
L 1159 2956 
Q 1366 3272 1645 3428 
Q 1925 3584 2291 3584 
Q 2894 3584 3203 3211 
Q 3513 2838 3513 2113 
z
" transform="scale(0.015625)"/>
       <path id="DejaVuSans-66" d="M 2375 4863 
L 2375 4384 
L 1825 4384 
Q 1516 4384 1395 4259 
Q 1275 4134 1275 3809 
L 1275 3500 
L 2222 3500 
L 2222 3053 
L 1275 3053 
L 1275 0 
L 697 0 
L 697 3053 
L 147 3053 
L 147 3500 
L 697 3500 
L 697 3744 
Q 697 4328 969 4595 
Q 1241 4863 1831 4863 
L 2375 4863 
z
" transform="scale(0.015625)"/>
      </defs>
      <use xlink:href="#DejaVuSans-74"/>
      <use xlink:href="#DejaVuSans-68" transform="translate(39.208984 0)"/>
      <use xlink:href="#DejaVuSans-65" transform="translate(102.587891 0)"/>
      <use xlink:href="#DejaVuSans-20" transform="translate(164.111328 0)"/>
      <use xlink:href="#DejaVuSans-6f" transform="translate(195.898438 0)"/>
      <use xlink:href="#DejaVuSans-74" transform="translate(257.080078 0)"/>
      <use xlink:href="#DejaVuSans-68" transform="translate(296.289062 0)"/>
      <use xlink:href="#DejaVuSans-65" transform="translate(359.667969 0)"/>
      <use xlink:href="#DejaVuSans-72" transform="translate(421.191406 0)"/>
      <use xlink:href="#DejaVuSans-20" transform="translate(462.304688 0)"/>
      <use xlink:href="#DejaVuSans-66" transform="translate(494.091797 0)"/>
      <use xlink:href="#DejaVuSans-69" transform="translate(529.296875 0)"/>
      <use xlink:href="#DejaVuSans-76" transform="translate(557.080078 0)"/>
      <use xlink:href="#DejaVuSans-65" transform="translate(616.259766 0)"/>
      <use xlink:href="#DejaVuSans-20" transform="translate(677.783203 0)"/>
      <use xlink:href="#DejaVuSans-64" transform="translate(709.570312 0)"/>
      <use xlink:href="#DejaVuSans-65" transform="translate(773.046875 0)"/>
      <use xlink:href="#DejaVuSans-63" transform="translate(834.570312 0)"/>
      <use xlink:href="#DejaVuSans-6f" transform="translate(889.550781 0)"/>
      <use xlink:href="#DejaVuSans-64" transform="translate(950.732422 0)"/>
      <use xlink:href="#DejaVuSans-65" transform="translate(1014.208984 0)"/>
      <use xlink:href="#DejaVuSans-72" transform="translate(1075.732422 0)"/>
      <use xlink:href="#DejaVuSans-73" transform="translate(1116.845703 0)"/>
     </g>
    </g>
    <g id="line2d_20">
     <path d="M 38.15 26.614875 
L 43.19 26.614875 
L 48.23 26.614875 
" style="fill: none; stroke-dasharray: 0.7,1.155; stroke-dashoffset: 0; stroke: #888888; stroke-width: 0.7"/>
    </g>
    <g id="text_17">
     <!-- chance (a) and floor (b) -->
     <g transform="translate(52.71 28.574875) scale(0.056 -0.056)">
      <defs>
       <path id="DejaVuSans-62" d="M 3116 1747 
Q 3116 2381 2855 2742 
Q 2594 3103 2138 3103 
Q 1681 3103 1420 2742 
Q 1159 2381 1159 1747 
Q 1159 1113 1420 752 
Q 1681 391 2138 391 
Q 2594 391 2855 752 
Q 3116 1113 3116 1747 
z
M 1159 2969 
Q 1341 3281 1617 3432 
Q 1894 3584 2278 3584 
Q 2916 3584 3314 3078 
Q 3713 2572 3713 1747 
Q 3713 922 3314 415 
Q 2916 -91 2278 -91 
Q 1894 -91 1617 61 
Q 1341 213 1159 525 
L 1159 0 
L 581 0 
L 581 4863 
L 1159 4863 
L 1159 2969 
z
" transform="scale(0.015625)"/>
      </defs>
      <use xlink:href="#DejaVuSans-63"/>
      <use xlink:href="#DejaVuSans-68" transform="translate(54.980469 0)"/>
      <use xlink:href="#DejaVuSans-61" transform="translate(118.359375 0)"/>
      <use xlink:href="#DejaVuSans-6e" transform="translate(179.638672 0)"/>
      <use xlink:href="#DejaVuSans-63" transform="translate(243.017578 0)"/>
      <use xlink:href="#DejaVuSans-65" transform="translate(297.998047 0)"/>
      <use xlink:href="#DejaVuSans-20" transform="translate(359.521484 0)"/>
      <use xlink:href="#DejaVuSans-28" transform="translate(391.308594 0)"/>
      <use xlink:href="#DejaVuSans-61" transform="translate(430.322266 0)"/>
      <use xlink:href="#DejaVuSans-29" transform="translate(491.601562 0)"/>
      <use xlink:href="#DejaVuSans-20" transform="translate(530.615234 0)"/>
      <use xlink:href="#DejaVuSans-61" transform="translate(562.402344 0)"/>
      <use xlink:href="#DejaVuSans-6e" transform="translate(623.681641 0)"/>
      <use xlink:href="#DejaVuSans-64" transform="translate(687.060547 0)"/>
      <use xlink:href="#DejaVuSans-20" transform="translate(750.537109 0)"/>
      <use xlink:href="#DejaVuSans-66" transform="translate(782.324219 0)"/>
      <use xlink:href="#DejaVuSans-6c" transform="translate(817.529297 0)"/>
      <use xlink:href="#DejaVuSans-6f" transform="translate(845.3125 0)"/>
      <use xlink:href="#DejaVuSans-6f" transform="translate(906.494141 0)"/>
      <use xlink:href="#DejaVuSans-72" transform="translate(967.675781 0)"/>
      <use xlink:href="#DejaVuSans-20" transform="translate(1008.789062 0)"/>
      <use xlink:href="#DejaVuSans-28" transform="translate(1040.576172 0)"/>
      <use xlink:href="#DejaVuSans-62" transform="translate(1079.589844 0)"/>
      <use xlink:href="#DejaVuSans-29" transform="translate(1143.066406 0)"/>
     </g>
    </g>
   </g>
  </g>
  <g id="axes_2">
   <g id="patch_5">
    <path d="M 252.79 81.22 
L 394.247866 81.22 
L 394.247866 13.86 
L 252.79 13.86 
z
" style="fill: #ffffff"/>
   </g>
   <g id="line2d_21">
    <path d="M 255.95399 68.317196 
L 276.769293 32.656593 
L 297.584595 30.389998 
L 318.399898 27.023215 
L 339.2152 28.426189 
L 360.030503 26.355102 
" clip-path="url(#pe311ad9747)" style="fill: none; stroke: #c8c8c8; stroke-width: 0.8; stroke-linecap: square"/>
    <g clip-path="url(#pe311ad9747)">
     <use xlink:href="#mf12e7fbb7e" x="255.95399" y="68.317196" style="fill: #c8c8c8; stroke: #c8c8c8"/>
     <use xlink:href="#mf12e7fbb7e" x="276.769293" y="32.656593" style="fill: #c8c8c8; stroke: #c8c8c8"/>
     <use xlink:href="#mf12e7fbb7e" x="297.584595" y="30.389998" style="fill: #c8c8c8; stroke: #c8c8c8"/>
     <use xlink:href="#mf12e7fbb7e" x="318.399898" y="27.023215" style="fill: #c8c8c8; stroke: #c8c8c8"/>
     <use xlink:href="#mf12e7fbb7e" x="339.2152" y="28.426189" style="fill: #c8c8c8; stroke: #c8c8c8"/>
     <use xlink:href="#mf12e7fbb7e" x="360.030503" y="26.355102" style="fill: #c8c8c8; stroke: #c8c8c8"/>
    </g>
   </g>
   <g id="line2d_22">
    <path d="M 255.95399 70.486195 
L 276.769293 52.29127 
L 297.584595 22.785006 
L 318.399898 29.643932 
L 339.2152 27.522121 
L 360.030503 30.601975 
" clip-path="url(#pe311ad9747)" style="fill: none; stroke: #c8c8c8; stroke-width: 0.8; stroke-linecap: square"/>
    <g clip-path="url(#pe311ad9747)">
     <use xlink:href="#mf12e7fbb7e" x="255.95399" y="70.486195" style="fill: #c8c8c8; stroke: #c8c8c8"/>
     <use xlink:href="#mf12e7fbb7e" x="276.769293" y="52.29127" style="fill: #c8c8c8; stroke: #c8c8c8"/>
     <use xlink:href="#mf12e7fbb7e" x="297.584595" y="22.785006" style="fill: #c8c8c8; stroke: #c8c8c8"/>
     <use xlink:href="#mf12e7fbb7e" x="318.399898" y="29.643932" style="fill: #c8c8c8; stroke: #c8c8c8"/>
     <use xlink:href="#mf12e7fbb7e" x="339.2152" y="27.522121" style="fill: #c8c8c8; stroke: #c8c8c8"/>
     <use xlink:href="#mf12e7fbb7e" x="360.030503" y="30.601975" style="fill: #c8c8c8; stroke: #c8c8c8"/>
    </g>
   </g>
   <g id="line2d_23">
    <path d="M 255.95399 63.713999 
L 276.769293 47.100816 
L 297.584595 37.761071 
L 318.399898 43.377023 
L 339.2152 32.848957 
L 360.030503 34.620887 
" clip-path="url(#pe311ad9747)" style="fill: none; stroke: #c8c8c8; stroke-width: 0.8; stroke-linecap: square"/>
    <g clip-path="url(#pe311ad9747)">
     <use xlink:href="#mf12e7fbb7e" x="255.95399" y="63.713999" style="fill: #c8c8c8; stroke: #c8c8c8"/>
     <use xlink:href="#mf12e7fbb7e" x="276.769293" y="47.100816" style="fill: #c8c8c8; stroke: #c8c8c8"/>
     <use xlink:href="#mf12e7fbb7e" x="297.584595" y="37.761071" style="fill: #c8c8c8; stroke: #c8c8c8"/>
     <use xlink:href="#mf12e7fbb7e" x="318.399898" y="43.377023" style="fill: #c8c8c8; stroke: #c8c8c8"/>
     <use xlink:href="#mf12e7fbb7e" x="339.2152" y="32.848957" style="fill: #c8c8c8; stroke: #c8c8c8"/>
     <use xlink:href="#mf12e7fbb7e" x="360.030503" y="34.620887" style="fill: #c8c8c8; stroke: #c8c8c8"/>
    </g>
   </g>
   <g id="line2d_24">
    <path d="M 255.95399 72.588888 
L 276.769293 60.200025 
L 297.584595 49.685842 
L 318.399898 45.554768 
L 339.2152 43.039659 
L 360.030503 42.304529 
" clip-path="url(#pe311ad9747)" style="fill: none; stroke: #c8c8c8; stroke-width: 0.8; stroke-linecap: square"/>
    <g clip-path="url(#pe311ad9747)">
     <use xlink:href="#mf12e7fbb7e" x="255.95399" y="72.588888" style="fill: #c8c8c8; stroke: #c8c8c8"/>
     <use xlink:href="#mf12e7fbb7e" x="276.769293" y="60.200025" style="fill: #c8c8c8; stroke: #c8c8c8"/>
     <use xlink:href="#mf12e7fbb7e" x="297.584595" y="49.685842" style="fill: #c8c8c8; stroke: #c8c8c8"/>
     <use xlink:href="#mf12e7fbb7e" x="318.399898" y="45.554768" style="fill: #c8c8c8; stroke: #c8c8c8"/>
     <use xlink:href="#mf12e7fbb7e" x="339.2152" y="43.039659" style="fill: #c8c8c8; stroke: #c8c8c8"/>
     <use xlink:href="#mf12e7fbb7e" x="360.030503" y="42.304529" style="fill: #c8c8c8; stroke: #c8c8c8"/>
    </g>
   </g>
   <g id="line2d_25">
    <path d="M 255.95399 65.996632 
L 276.769293 63.107804 
L 297.584595 59.013156 
L 318.399898 46.82688 
L 339.2152 49.848118 
L 360.030503 47.347059 
" clip-path="url(#pe311ad9747)" style="fill: none; stroke: #c8c8c8; stroke-width: 0.8; stroke-linecap: square"/>
    <g clip-path="url(#pe311ad9747)">
     <use xlink:href="#mf12e7fbb7e" x="255.95399" y="65.996632" style="fill: #c8c8c8; stroke: #c8c8c8"/>
     <use xlink:href="#mf12e7fbb7e" x="276.769293" y="63.107804" style="fill: #c8c8c8; stroke: #c8c8c8"/>
     <use xlink:href="#mf12e7fbb7e" x="297.584595" y="59.013156" style="fill: #c8c8c8; stroke: #c8c8c8"/>
     <use xlink:href="#mf12e7fbb7e" x="318.399898" y="46.82688" style="fill: #c8c8c8; stroke: #c8c8c8"/>
     <use xlink:href="#mf12e7fbb7e" x="339.2152" y="49.848118" style="fill: #c8c8c8; stroke: #c8c8c8"/>
     <use xlink:href="#mf12e7fbb7e" x="360.030503" y="47.347059" style="fill: #c8c8c8; stroke: #c8c8c8"/>
    </g>
   </g>
   <g id="matplotlib.axis_3">
    <g id="xtick_7">
     <g id="line2d_26">
      <g>
       <use xlink:href="#me4365940cb" x="255.95399" y="81.22" style="stroke: #000000; stroke-width: 0.8"/>
      </g>
     </g>
     <g id="text_18">
      <!-- 2 -->
      <g transform="translate(253.886178 93.158984) scale(0.065 -0.065)">
       <use xlink:href="#DejaVuSans-32"/>
      </g>
     </g>
    </g>
    <g id="xtick_8">
     <g id="line2d_27">
      <g>
       <use xlink:href="#me4365940cb" x="276.769293" y="81.22" style="stroke: #000000; stroke-width: 0.8"/>
      </g>
     </g>
     <g id="text_19">
      <!-- 4 -->
      <g transform="translate(274.70148 93.158984) scale(0.065 -0.065)">
       <use xlink:href="#DejaVuSans-34"/>
      </g>
     </g>
    </g>
    <g id="xtick_9">
     <g id="line2d_28">
      <g>
       <use xlink:href="#me4365940cb" x="297.584595" y="81.22" style="stroke: #000000; stroke-width: 0.8"/>
      </g>
     </g>
     <g id="text_20">
      <!-- 8 -->
      <g transform="translate(295.516783 93.158984) scale(0.065 -0.065)">
       <use xlink:href="#DejaVuSans-38"/>
      </g>
     </g>
    </g>
    <g id="xtick_10">
     <g id="line2d_29">
      <g>
       <use xlink:href="#me4365940cb" x="318.399898" y="81.22" style="stroke: #000000; stroke-width: 0.8"/>
      </g>
     </g>
     <g id="text_21">
      <!-- 16 -->
      <g transform="translate(314.264273 93.158984) scale(0.065 -0.065)">
       <use xlink:href="#DejaVuSans-31"/>
       <use xlink:href="#DejaVuSans-36" transform="translate(63.623047 0)"/>
      </g>
     </g>
    </g>
    <g id="xtick_11">
     <g id="line2d_30">
      <g>
       <use xlink:href="#me4365940cb" x="339.2152" y="81.22" style="stroke: #000000; stroke-width: 0.8"/>
      </g>
     </g>
     <g id="text_22">
      <!-- 32 -->
      <g transform="translate(335.079575 93.158984) scale(0.065 -0.065)">
       <use xlink:href="#DejaVuSans-33"/>
       <use xlink:href="#DejaVuSans-32" transform="translate(63.623047 0)"/>
      </g>
     </g>
    </g>
    <g id="xtick_12">
     <g id="line2d_31">
      <g>
       <use xlink:href="#me4365940cb" x="360.030503" y="81.22" style="stroke: #000000; stroke-width: 0.8"/>
      </g>
     </g>
     <g id="text_23">
      <!-- 64 -->
      <g transform="translate(355.894878 93.158984) scale(0.065 -0.065)">
       <use xlink:href="#DejaVuSans-36"/>
       <use xlink:href="#DejaVuSans-34" transform="translate(63.623047 0)"/>
      </g>
     </g>
    </g>
    <g id="text_24">
     <!-- electrodes -->
     <g transform="translate(305.242371 103.829688) scale(0.07 -0.07)">
      <use xlink:href="#DejaVuSans-65"/>
      <use xlink:href="#DejaVuSans-6c" transform="translate(61.523438 0)"/>
      <use xlink:href="#DejaVuSans-65" transform="translate(89.306641 0)"/>
      <use xlink:href="#DejaVuSans-63" transform="translate(150.830078 0)"/>
      <use xlink:href="#DejaVuSans-74" transform="translate(205.810547 0)"/>
      <use xlink:href="#DejaVuSans-72" transform="translate(245.019531 0)"/>
      <use xlink:href="#DejaVuSans-6f" transform="translate(283.882812 0)"/>
      <use xlink:href="#DejaVuSans-64" transform="translate(345.064453 0)"/>
      <use xlink:href="#DejaVuSans-65" transform="translate(408.541016 0)"/>
      <use xlink:href="#DejaVuSans-73" transform="translate(470.064453 0)"/>
     </g>
    </g>
   </g>
   <g id="matplotlib.axis_4">
    <g id="ytick_4">
     <g id="line2d_32">
      <g>
       <use xlink:href="#mbb33f3bc35" x="252.79" y="71.594361" style="stroke: #000000; stroke-width: 0.8"/>
      </g>
     </g>
     <g id="text_25">
      <!-- 0.00 -->
      <g transform="translate(231.317344 74.063853) scale(0.065 -0.065)">
       <use xlink:href="#DejaVuSans-30"/>
       <use xlink:href="#DejaVuSans-2e" transform="translate(63.623047 0)"/>
       <use xlink:href="#DejaVuSans-30" transform="translate(95.410156 0)"/>
       <use xlink:href="#DejaVuSans-30" transform="translate(159.033203 0)"/>
      </g>
     </g>
    </g>
    <g id="ytick_5">
     <g id="line2d_33">
      <g>
       <use xlink:href="#mbb33f3bc35" x="252.79" y="53.693041" style="stroke: #000000; stroke-width: 0.8"/>
      </g>
     </g>
     <g id="text_26">
      <!-- 0.05 -->
      <g transform="translate(231.317344 56.162533) scale(0.065 -0.065)">
       <use xlink:href="#DejaVuSans-30"/>
       <use xlink:href="#DejaVuSans-2e" transform="translate(63.623047 0)"/>
       <use xlink:href="#DejaVuSans-30" transform="translate(95.410156 0)"/>
       <use xlink:href="#DejaVuSans-35" transform="translate(159.033203 0)"/>
      </g>
     </g>
    </g>
    <g id="ytick_6">
     <g id="line2d_34">
      <g>
       <use xlink:href="#mbb33f3bc35" x="252.79" y="35.791721" style="stroke: #000000; stroke-width: 0.8"/>
      </g>
     </g>
     <g id="text_27">
      <!-- 0.10 -->
      <g transform="translate(231.317344 38.261213) scale(0.065 -0.065)">
       <use xlink:href="#DejaVuSans-30"/>
       <use xlink:href="#DejaVuSans-2e" transform="translate(63.623047 0)"/>
       <use xlink:href="#DejaVuSans-31" transform="translate(95.410156 0)"/>
       <use xlink:href="#DejaVuSans-30" transform="translate(159.033203 0)"/>
      </g>
     </g>
    </g>
    <g id="ytick_7">
     <g id="line2d_35">
      <g>
       <use xlink:href="#mbb33f3bc35" x="252.79" y="17.890401" style="stroke: #000000; stroke-width: 0.8"/>
      </g>
     </g>
     <g id="text_28">
      <!-- 0.15 -->
      <g transform="translate(231.317344 20.359893) scale(0.065 -0.065)">
       <use xlink:href="#DejaVuSans-30"/>
       <use xlink:href="#DejaVuSans-2e" transform="translate(63.623047 0)"/>
       <use xlink:href="#DejaVuSans-31" transform="translate(95.410156 0)"/>
       <use xlink:href="#DejaVuSans-35" transform="translate(159.033203 0)"/>
      </g>
     </g>
    </g>
    <g id="text_29">
     <!-- lateralization -->
     <g transform="translate(225.861562 70.397188) rotate(-90) scale(0.07 -0.07)">
      <defs>
       <path id="DejaVuSans-7a" d="M 353 3500 
L 3084 3500 
L 3084 2975 
L 922 459 
L 3084 459 
L 3084 0 
L 275 0 
L 275 525 
L 2438 3041 
L 353 3041 
L 353 3500 
z
" transform="scale(0.015625)"/>
      </defs>
      <use xlink:href="#DejaVuSans-6c"/>
      <use xlink:href="#DejaVuSans-61" transform="translate(27.783203 0)"/>
      <use xlink:href="#DejaVuSans-74" transform="translate(89.0625 0)"/>
      <use xlink:href="#DejaVuSans-65" transform="translate(128.271484 0)"/>
      <use xlink:href="#DejaVuSans-72" transform="translate(189.794922 0)"/>
      <use xlink:href="#DejaVuSans-61" transform="translate(230.908203 0)"/>
      <use xlink:href="#DejaVuSans-6c" transform="translate(292.1875 0)"/>
      <use xlink:href="#DejaVuSans-69" transform="translate(319.970703 0)"/>
      <use xlink:href="#DejaVuSans-7a" transform="translate(347.753906 0)"/>
      <use xlink:href="#DejaVuSans-61" transform="translate(400.244141 0)"/>
      <use xlink:href="#DejaVuSans-74" transform="translate(461.523438 0)"/>
      <use xlink:href="#DejaVuSans-69" transform="translate(500.732422 0)"/>
      <use xlink:href="#DejaVuSans-6f" transform="translate(528.515625 0)"/>
      <use xlink:href="#DejaVuSans-6e" transform="translate(589.697266 0)"/>
     </g>
    </g>
   </g>
   <g id="line2d_36">
    <path d="M 252.79 71.594361 
L 394.247866 71.594361 
" clip-path="url(#pe311ad9747)" style="fill: none; stroke-dasharray: 0.7,1.155; stroke-dashoffset: 0; stroke: #888888; stroke-width: 0.7"/>
   </g>
   <g id="patch_6">
    <path d="M 252.79 81.22 
L 252.79 13.86 
" style="fill: none; stroke: #000000; stroke-width: 0.6; stroke-linejoin: miter; stroke-linecap: square"/>
   </g>
   <g id="patch_7">
    <path d="M 252.79 81.22 
L 394.247866 81.22 
" style="fill: none; stroke: #000000; stroke-width: 0.6; stroke-linejoin: miter; stroke-linecap: square"/>
   </g>
   <g id="line2d_37">
    <path d="M 255.95399 64.329637 
L 276.769293 31.955707 
L 297.584595 18.774905 
L 318.399898 19.11951 
L 339.2152 16.921818 
L 360.030503 25.79263 
" clip-path="url(#pe311ad9747)" style="fill: none; stroke: #5b2c8d; stroke-width: 1.5; stroke-linecap: square"/>
    <g clip-path="url(#pe311ad9747)">
     <use xlink:href="#m3367631335" x="255.95399" y="64.329637" style="fill: #5b2c8d; stroke: #5b2c8d"/>
     <use xlink:href="#m3367631335" x="276.769293" y="31.955707" style="fill: #5b2c8d; stroke: #5b2c8d"/>
     <use xlink:href="#m3367631335" x="297.584595" y="18.774905" style="fill: #5b2c8d; stroke: #5b2c8d"/>
     <use xlink:href="#m3367631335" x="318.399898" y="19.11951" style="fill: #5b2c8d; stroke: #5b2c8d"/>
     <use xlink:href="#m3367631335" x="339.2152" y="16.921818" style="fill: #5b2c8d; stroke: #5b2c8d"/>
     <use xlink:href="#m3367631335" x="360.030503" y="25.79263" style="fill: #5b2c8d; stroke: #5b2c8d"/>
    </g>
   </g>
   <g id="line2d_38">
    <path d="M 255.95399 71.423862 
L 276.769293 57.027042 
L 297.584595 46.442167 
L 318.399898 45.747136 
L 339.2152 43.309181 
L 360.030503 49.607872 
" clip-path="url(#pe311ad9747)" style="fill: none; stroke: #1f4e79; stroke-width: 1.5; stroke-linecap: square"/>
    <g clip-path="url(#pe311ad9747)">
     <use xlink:href="#mc815500b27" x="255.95399" y="71.423862" style="fill: #1f4e79; stroke: #1f4e79"/>
     <use xlink:href="#mc815500b27" x="276.769293" y="57.027042" style="fill: #1f4e79; stroke: #1f4e79"/>
     <use xlink:href="#mc815500b27" x="297.584595" y="46.442167" style="fill: #1f4e79; stroke: #1f4e79"/>
     <use xlink:href="#mc815500b27" x="318.399898" y="45.747136" style="fill: #1f4e79; stroke: #1f4e79"/>
     <use xlink:href="#mc815500b27" x="339.2152" y="43.309181" style="fill: #1f4e79; stroke: #1f4e79"/>
     <use xlink:href="#mc815500b27" x="360.030503" y="49.607872" style="fill: #1f4e79; stroke: #1f4e79"/>
    </g>
   </g>
   <g id="line2d_39">
    <path d="M 255.95399 64.860067 
L 276.769293 75.92288 
L 297.584595 76.10942 
L 318.399898 70.513873 
L 339.2152 72.733762 
L 360.030503 78.158182 
" clip-path="url(#pe311ad9747)" style="fill: none; stroke: #d55e00; stroke-width: 1.5; stroke-linecap: square"/>
    <g clip-path="url(#pe311ad9747)">
     <use xlink:href="#ma231625788" x="255.95399" y="64.860067" style="fill: #d55e00; stroke: #d55e00"/>
     <use xlink:href="#ma231625788" x="276.769293" y="75.92288" style="fill: #d55e00; stroke: #d55e00"/>
     <use xlink:href="#ma231625788" x="297.584595" y="76.10942" style="fill: #d55e00; stroke: #d55e00"/>
     <use xlink:href="#ma231625788" x="318.399898" y="70.513873" style="fill: #d55e00; stroke: #d55e00"/>
     <use xlink:href="#ma231625788" x="339.2152" y="72.733762" style="fill: #d55e00; stroke: #d55e00"/>
     <use xlink:href="#ma231625788" x="360.030503" y="78.158182" style="fill: #d55e00; stroke: #d55e00"/>
    </g>
   </g>
   <g id="text_30">
    <!-- STIA-Net -->
    <g style="fill: #d55e00" transform="translate(363.030503 80.868994) scale(0.062 -0.062)">
     <use xlink:href="#DejaVuSans-53"/>
     <use xlink:href="#DejaVuSans-54" transform="translate(63.476562 0)"/>
     <use xlink:href="#DejaVuSans-49" transform="translate(124.560547 0)"/>
     <use xlink:href="#DejaVuSans-41" transform="translate(154.052734 0)"/>
     <use xlink:href="#DejaVuSans-2d" transform="translate(220.210938 0)"/>
     <use xlink:href="#DejaVuSans-4e" transform="translate(256.294922 0)"/>
     <use xlink:href="#DejaVuSans-65" transform="translate(331.099609 0)"/>
     <use xlink:href="#DejaVuSans-74" transform="translate(392.623047 0)"/>
    </g>
   </g>
   <g id="text_31">
    <!-- Riemannian -->
    <g style="fill: #1f4e79" transform="translate(363.030503 52.318684) scale(0.062 -0.062)">
     <use xlink:href="#DejaVuSans-52"/>
     <use xlink:href="#DejaVuSans-69" transform="translate(69.482422 0)"/>
     <use xlink:href="#DejaVuSans-65" transform="translate(97.265625 0)"/>
     <use xlink:href="#DejaVuSans-6d" transform="translate(158.789062 0)"/>
     <use xlink:href="#DejaVuSans-61" transform="translate(256.201172 0)"/>
     <use xlink:href="#DejaVuSans-6e" transform="translate(317.480469 0)"/>
     <use xlink:href="#DejaVuSans-6e" transform="translate(380.859375 0)"/>
     <use xlink:href="#DejaVuSans-69" transform="translate(444.238281 0)"/>
     <use xlink:href="#DejaVuSans-61" transform="translate(472.021484 0)"/>
     <use xlink:href="#DejaVuSans-6e" transform="translate(533.300781 0)"/>
    </g>
   </g>
   <g id="text_32">
    <!-- Adaptive Deep CNN -->
    <g style="fill: #5b2c8d" transform="translate(363.030503 28.503443) scale(0.062 -0.062)">
     <use xlink:href="#DejaVuSans-41"/>
     <use xlink:href="#DejaVuSans-64" transform="translate(66.658203 0)"/>
     <use xlink:href="#DejaVuSans-61" transform="translate(130.134766 0)"/>
     <use xlink:href="#DejaVuSans-70" transform="translate(191.414062 0)"/>
     <use xlink:href="#DejaVuSans-74" transform="translate(254.890625 0)"/>
     <use xlink:href="#DejaVuSans-69" transform="translate(294.099609 0)"/>
     <use xlink:href="#DejaVuSans-76" transform="translate(321.882812 0)"/>
     <use xlink:href="#DejaVuSans-65" transform="translate(381.0625 0)"/>
     <use xlink:href="#DejaVuSans-20" transform="translate(442.585938 0)"/>
     <use xlink:href="#DejaVuSans-44" transform="translate(474.373047 0)"/>
     <use xlink:href="#DejaVuSans-65" transform="translate(551.375 0)"/>
     <use xlink:href="#DejaVuSans-65" transform="translate(612.898438 0)"/>
     <use xlink:href="#DejaVuSans-70" transform="translate(674.421875 0)"/>
     <use xlink:href="#DejaVuSans-20" transform="translate(737.898438 0)"/>
     <use xlink:href="#DejaVuSans-43" transform="translate(769.685547 0)"/>
     <use xlink:href="#DejaVuSans-4e" transform="translate(839.509766 0)"/>
     <use xlink:href="#DejaVuSans-4e" transform="translate(914.314453 0)"/>
    </g>
   </g>
   <g id="text_33">
    <!-- (b) lateralization saturates at 8 -->
    <g transform="translate(252.79 7.86) scale(0.069 -0.069)">
     <defs>
      <path id="DejaVuSans-75" d="M 544 1381 
L 544 3500 
L 1119 3500 
L 1119 1403 
Q 1119 906 1312 657 
Q 1506 409 1894 409 
Q 2359 409 2629 706 
Q 2900 1003 2900 1516 
L 2900 3500 
L 3475 3500 
L 3475 0 
L 2900 0 
L 2900 538 
Q 2691 219 2414 64 
Q 2138 -91 1772 -91 
Q 1169 -91 856 284 
Q 544 659 544 1381 
z
M 1991 3584 
L 1991 3584 
z
" transform="scale(0.015625)"/>
     </defs>
     <use xlink:href="#DejaVuSans-28"/>
     <use xlink:href="#DejaVuSans-62" transform="translate(39.013672 0)"/>
     <use xlink:href="#DejaVuSans-29" transform="translate(102.490234 0)"/>
     <use xlink:href="#DejaVuSans-20" transform="translate(141.503906 0)"/>
     <use xlink:href="#DejaVuSans-6c" transform="translate(173.291016 0)"/>
     <use xlink:href="#DejaVuSans-61" transform="translate(201.074219 0)"/>
     <use xlink:href="#DejaVuSans-74" transform="translate(262.353516 0)"/>
     <use xlink:href="#DejaVuSans-65" transform="translate(301.5625 0)"/>
     <use xlink:href="#DejaVuSans-72" transform="translate(363.085938 0)"/>
     <use xlink:href="#DejaVuSans-61" transform="translate(404.199219 0)"/>
     <use xlink:href="#DejaVuSans-6c" transform="translate(465.478516 0)"/>
     <use xlink:href="#DejaVuSans-69" transform="translate(493.261719 0)"/>
     <use xlink:href="#DejaVuSans-7a" transform="translate(521.044922 0)"/>
     <use xlink:href="#DejaVuSans-61" transform="translate(573.535156 0)"/>
     <use xlink:href="#DejaVuSans-74" transform="translate(634.814453 0)"/>
     <use xlink:href="#DejaVuSans-69" transform="translate(674.023438 0)"/>
     <use xlink:href="#DejaVuSans-6f" transform="translate(701.806641 0)"/>
     <use xlink:href="#DejaVuSans-6e" transform="translate(762.988281 0)"/>
     <use xlink:href="#DejaVuSans-20" transform="translate(826.367188 0)"/>
     <use xlink:href="#DejaVuSans-73" transform="translate(858.154297 0)"/>
     <use xlink:href="#DejaVuSans-61" transform="translate(910.253906 0)"/>
     <use xlink:href="#DejaVuSans-74" transform="translate(971.533203 0)"/>
     <use xlink:href="#DejaVuSans-75" transform="translate(1010.742188 0)"/>
     <use xlink:href="#DejaVuSans-72" transform="translate(1074.121094 0)"/>
     <use xlink:href="#DejaVuSans-61" transform="translate(1115.234375 0)"/>
     <use xlink:href="#DejaVuSans-74" transform="translate(1176.513672 0)"/>
     <use xlink:href="#DejaVuSans-65" transform="translate(1215.722656 0)"/>
     <use xlink:href="#DejaVuSans-73" transform="translate(1277.246094 0)"/>
     <use xlink:href="#DejaVuSans-20" transform="translate(1329.345703 0)"/>
     <use xlink:href="#DejaVuSans-61" transform="translate(1361.132812 0)"/>
     <use xlink:href="#DejaVuSans-74" transform="translate(1422.412109 0)"/>
     <use xlink:href="#DejaVuSans-20" transform="translate(1461.621094 0)"/>
     <use xlink:href="#DejaVuSans-38" transform="translate(1493.408203 0)"/>
    </g>
   </g>
  </g>
 </g>
 <defs>
  <clipPath id="pe37f10aeae">
   <rect x="34.79" y="13.86" width="141.457866" height="67.36"/>
  </clipPath>
  <clipPath id="pe311ad9747">
   <rect x="252.79" y="13.86" width="141.457866" height="67.36"/>
  </clipPath>
 </defs>
</svg>
